<?xml version="1.0" encoding="utf-8"?>
<!-- Generator: Adobe Illustrator 25.0.0, SVG Export Plug-In . SVG Version: 6.00 Build 0)  -->
<svg version="1.1" xmlns="http://www.w3.org/2000/svg" xmlns:xlink="http://www.w3.org/1999/xlink" x="0px" y="0px"
	 viewBox="0 0 512 512" style="enable-background:new 0 0 512 512;" xml:space="preserve">
<style type="text/css">
	.st0{fill:#FFFFFF;}
	.st1{fill:#3B434F;}
	.st2{fill:#F5F3EF;}
	.st3{fill-rule:evenodd;clip-rule:evenodd;fill:#3B434F;}
	.st4{opacity:5.882400e-02;fill-rule:evenodd;clip-rule:evenodd;fill:#3B434F;enable-background:new    ;}
	.st5{opacity:0.1216;enable-background:new    ;}
	.st6{fill-rule:evenodd;clip-rule:evenodd;fill:#3B444F;}
	.st7{fill:#9EA0A4;}
	.st8{opacity:0.2;fill-rule:evenodd;clip-rule:evenodd;fill:#3B434F;enable-background:new    ;}
	.st9{fill:#EDF1F1;}
	.st10{fill:#C1BFBD;}
	.st11{fill:#3B444F;}
	.st12{fill:#F7FBFB;}
</style>
<g id="Layer_3">
	<path id="body-bg-flat" class="st0" d="M9.4,301.5c0,0-6.7-58.7,51.3-65.3h24.8v-11.4c0,0,17.5,7.5,35.2,0.8l0.6,10.5h29
		c0,0,50.6,5,47.5,65.3H9.4z"/>
	<path id="Rounded_Rectangle_13_copy" class="st1" d="M197.3,302.5L197.3,302.5H11.2l0,0H7.6l0.9-15.3c1.8-29.9,25.4-52.7,52.5-52.7
		h20.6v3.1h-19c-26.1,0-48.9,21.9-50.6,50.7l-0.6,10.6h185.4l-0.3-10.6c-1.7-28.7-24.5-50.7-50.6-50.7h-25.4v-3.1h26.9
		c27.1,0,50.8,22.8,52.5,52.7l0.9,15.3H197.3z"/>
	<path id="neck_copy_5" class="st1" d="M88.4,223.5v17.1c0,8.9,7.2,16.1,16.2,16.1s16.2-7.2,16.2-16.1v-16.8
		c0.9-0.3,1.9-0.6,2.8-0.9v17.8c0,10.5-8.6,19-19.1,19s-19.1-8.5-19.1-19v-18.3C86.3,222.8,87.3,223.2,88.4,223.5z"/>
	<path id="Rounded_Rectangle_14" class="st1" d="M85.2,256.4c1,0,1.8,0.8,1.8,1.8v27.2c0,1-0.8,1.8-1.8,1.8c-1,0-1.8-0.8-1.8-1.8
		v-27.2C83.3,257.2,84.2,256.4,85.2,256.4z"/>
	<path id="Rounded_Rectangle_15" class="st1" d="M123.3,256.2c1.1,0,2,0.9,2,1.9V275c0,1.1-0.9,1.9-2,1.9c-1.1,0-2-0.9-2-1.9v-16.9
		C121.3,257,122.2,256.2,123.3,256.2z"/>
	<path id="Rounded_Rectangle_16" class="st1" d="M85.2,285.3c0.5,0,1,0.4,1,1v6.9c0,0.5-0.4,1-1,1c-0.5,0-1-0.4-1-1v-6.9
		C84.2,285.7,84.6,285.3,85.2,285.3z"/>
	<path id="Rounded_Rectangle_16_copy" class="st1" d="M123.4,275c0.5,0,1,0.4,1,1v6.9c0,0.5-0.4,1-1,1c-0.5,0-1-0.4-1-1V276
		C122.4,275.5,122.9,275,123.4,275z"/>
	<path id="Shape_1_copy" class="st2" d="M74.7,216.7l-17.7,4c0,0-21.6,4.9-7.2,19.4c14.4,14.5,51.4,17.1,51.4,17.1s-9.8-4.6-14-11.1
		l-1.4-23.3L74.7,216.7z"/>
	<path id="Shape_1_copy_2" class="st3" d="M101.8,258.6c-1.1,1.4-31.9,0.4-53.3-18c-15.5-13.4,7.8-21.1,7.8-21.1l17-3.9l14.8,7.5
		l1.1,22.5C95.4,255.2,103.5,256.3,101.8,258.6z M86.4,246.6l-1.7-23.6l-8.9-5l-17,4.2c0,0-20.6,4.2-7.5,16.4
		c14.1,13.1,40.3,16.6,43,16.4C97.1,254.7,92.6,256.3,86.4,246.6z"/>
	<path id="Shape_1_copy_4" class="st2" d="M134.4,217.4l17.7,4c0,0,21.7,4.9,7.3,19.4c-14.4,14.5-51.5,17.1-51.5,17.1
		s9.8-4.6,14-11.1l1.4-23.4L134.4,217.4z"/>
	<path id="Shape_1_copy_6" class="st3" d="M107.3,259.1c1.1,1.4,32,0.4,53.3-18.1c15.5-13.4-7.8-21.1-7.8-21.1l-17-3.9l-14.8,7.5
		l-1.1,22.5C113.6,255.7,105.5,256.8,107.3,259.1z M122.7,247.1l1.7-23.6l8.9-5l17,4.2c0,0,20.6,4.2,7.5,16.4
		c-14.1,13.2-40.3,16.7-43,16.4C112,255.2,116.4,256.8,122.7,247.1z"/>
	<path id="_x32__copy_5_1_" class="st0" d="M105.7,49.5c34.7,0,62.1,32.2,61.2,71l-0.9,41.2c-0.8,36.5-27.8,65.3-60.3,65.3
		s-59.5-28.8-60.3-65.3l-0.9-41.2C43.6,81.8,71,49.5,105.7,49.5z"/>
	<path id="_x32__line_1_" class="st3" d="M169.7,119.2l-1,42.8c-0.9,38-29.2,68-63.2,68s-62.3-30-63.2-68l-1-42.8
		c-0.9-40.3,27.8-73.9,64.2-73.9S170.7,78.9,169.7,119.2z M105.4,49.8c-34.2,0-61.3,32-60.4,70.4l0.9,40.9
		c0.8,36.2,27.4,64.8,59.5,64.8s58.6-28.6,59.5-64.8l0.9-40.9C166.7,81.8,139.7,49.8,105.4,49.8z"/>
	<path id="_x31__copy_4" class="st4" d="M168,126.4l-2.8,45.5c0,0-12.4,52.5-60.3,58.7v0.1c-0.1,0-0.2,0-0.3,0c-0.1,0-0.2,0-0.3,0
		v-0.1c-47.9-6.2-60.3-58.7-60.3-58.7l-2.8-45.5c12.4,54.8,22.9,58.2,22.9,58.2c-2.1-16.6,15.1-15,15.1-15
		c10.5,1.8,18.8,2.6,25.4,2.9c6.6-0.3,14.9-1.2,25.4-2.9c0,0,17.2-1.6,15.1,15C145.1,184.6,155.6,181.2,168,126.4z M137,190.2
		c-0.8-9.8-6.7-8.9-6.7-8.9c-10.5,3.1-18.8,4.8-25.3,5.7v-0.1c-6.4-0.9-14.6-2.6-25.1-5.6c0,0-5.9-0.8-6.7,8.9c0,0-2.4,9.7,5.6,13.9
		l10,10.5c0,0,6.9,2.2,6.7-6.1c0,0-0.7-6.2,3.3-7.2h6.1v0.2h6.2c4.1,1.1,3.4,7.3,3.4,7.3c-0.2,8.3,6.7,6.2,6.7,6.2l10.1-10.6
		C139.4,200,137,190.2,137,190.2z"/>
	<path id="usta_2_" class="st1" d="M135.7,186.6c-5.1,4.4-16.5,8.5-29.9,8.5c-13.3,0-24.8-4.2-29.9-8.5c0,0-0.5-1.4,0.2-2.2
		c0.8-0.8,2-0.6,2-0.6c5.1,4.4,14.3,8,27.6,8c13.3,0,22.6-3.6,27.6-8c0,0,1.2-0.5,1.8,0.1C136.5,185.1,135.7,186.6,135.7,186.6z"/>
	<path id="_x2D__2_" class="st1" d="M96.6,201.8h17.9v2.8H96.6V201.8z"/>
	<path id="Shape_11_copy_2_" class="st0" d="M41.3,125.5c0,0-0.7-0.5-2-0.9c-0.6-0.2-1.4-0.4-2.3-0.4c-0.2,0-0.5,0-0.7,0
		c-0.2,0-0.5,0-0.7,0c-0.5,0.1-1,0.1-1.5,0.3c-2.1,0.6-4.2,2-5.4,5c-0.6,1.5-1,3.3-1.1,5.7c0,0.6,0,1.2,0,1.8c0,0.6,0,1.3,0.1,2
		c0.1,1.4,0.3,2.9,0.6,4.6c0,0-0.3,5.1,1.5,10.9c1.7,5.7,5.8,12.6,13.4,14.6C42.3,154.7,42.3,140,41.3,125.5L41.3,125.5z"/>
	<path id="Shape_3_2_" class="st1" d="M42.2,126.1c0,0-13.2-4.1-12.7,9.4c0,0,2,19.6,2.8,21.4c0,0,5.2,11.4,13.7,11.9
		c8.4,0.5,0,0,0,0l0.1,3.7c0,0-15-1.9-17.9-19.1l-2.3-15.6c0,0-1.8-20.7,15.5-15.4c16.8,5.1,0,0,0,0L42.2,126.1"/>
	<path id="Shape_4_2_" class="st1" d="M37.9,153.2c0,0-0.7,0.6-1.4,0.6s-1.4-0.6-1.4-0.6l-1.4-13.6c0,0,1.9-6.7,9.9-3.2l0.2,3.9
		c0,0-7-2.5-6.9,0.6C37.1,143.9,37.9,153.2,37.9,153.2z"/>
	<path id="Shape_11_copy_x5F_1_1_" class="st0" d="M169.6,125.5c0,0,0.7-0.5,2-0.9c0.6-0.2,1.4-0.4,2.4-0.4c0.2,0,0.5,0,0.7,0
		c0.2,0,0.5,0,0.7,0c0.5,0.1,1,0.1,1.5,0.3c2.1,0.6,4.2,2,5.4,5c0.6,1.5,1,3.3,1.1,5.7c0,0.6,0,1.2,0,1.8c0,0.6,0,1.3-0.1,2
		c-0.1,1.4-0.3,2.9-0.6,4.6c0,0,0.3,5-1.6,10.8c-1.7,5.7-5.8,12.6-13.4,14.6C168.6,154.7,168.7,140,169.6,125.5L169.6,125.5z"/>
	<path id="Shape_3_x5F_1_2_" class="st1" d="M168.7,126.1c0,0,13.3-4.1,12.8,9.4c0,0-2,19.5-2.8,21.3c0,0-5.2,11.4-13.8,11.9
		c-8.4,0.5,0,0,0,0l-0.1,3.7c0,0,15.1-1.9,18-19.1l2.3-15.6c0,0,1.8-20.7-15.6-15.4c-16.9,5.1,0,0,0,0L168.7,126.1"/>
	<path id="Shape_4_x5F_1_2_" class="st1" d="M173.1,153.3c0,0,0.7,0.6,1.4,0.6s1.4-0.6,1.4-0.6l1.4-13.6c0,0-1.9-6.7-9.9-3.2
		l-0.2,3.9c0,0,7-2.5,6.9,0.6C173.8,143.9,173.1,153.3,173.1,153.3z"/>
	<path id="new_vector_shape_done_2_" class="st3" d="M110.7,152.2c0.3,0,0.7,0,1,0c2,2.7,2.8,6.9,3.9,10.5c0.3,1.1,0,3.1-0.3,3.9
		c-1.1,2.9-4.4,2.9-7.1,4.2c-0.7,0.4-1.3,1-2.2,1.1c-0.6-0.5-1.4-0.6-1.7-1.5c-0.8-1,0.2-1.7,1-2.1c1.4-0.7,5.6-1.5,6.1-2.8
		c0.6-0.7,0.2-2.9,0-3.6c-0.5-1.9-0.8-3.5-1.5-5.3c-0.5-1.2-1.3-2.4-0.8-3.7C109.5,152.7,110.4,152.5,110.7,152.2z"/>
	<path id="Rounded_Rectangle_9" class="st1" d="M70.1,132.6h10c1.4,0,2.5,1.3,2.5,3c0,1.7-1.1,3-2.5,3h-10c-1.4,0-2.5-1.3-2.5-3
		C67.6,133.9,68.7,132.6,70.1,132.6z"/>
	<path id="Rounded_Rectangle_9_copy" class="st1" d="M131.5,131.9h10c1.4,0,2.5,1.3,2.5,3c0,1.7-1.1,3-2.5,3h-10
		c-1.4,0-2.5-1.3-2.5-3C129,133.3,130.2,131.9,131.5,131.9z"/>
	<path id="Ellipse_3_copy_1_" class="st5" d="M74.6,149.1c5.4,0,9.8,0.3,9.8,6.4c0,6.3-4.4,6.4-9.8,6.4c-5.4,0-9.8-1.1-9.8-6.4
		C64.8,149.4,69.2,149.1,74.6,149.1z"/>
	<path id="Ellipse_3_copy_2_1_" class="st5" d="M139.4,149.1c5.4,0,9.8,0.3,9.8,6.4c0,6.3-4.4,6.4-9.8,6.4c-5.4,0-9.8-1.1-9.8-6.4
		C129.6,149.4,134,149.1,139.4,149.1z"/>
	<path id="glasses" class="st6" d="M166.4,122.6c-0.4,3.2-0.7,7.1-1.4,10.6c-2.1,10.5-11.2,20.2-26.6,21.3
		c-15.5,1.1-28.7-6.6-29.4-17.3c-0.1-1.8-0.5-3.8-0.7-5.8c-2.2-1.2-4.4-1.2-6.8,0c-0.3,2-0.6,4.1-0.8,5.9
		c-0.8,10.7-14,18.5-29.5,17.4s-24.6-10.9-26.7-21.4c-0.7-3.5-1-7.5-1.4-10.7l-2.3-0.2l0.3-4.4l0.6,0l14.1,1l11.9,0.9l11.9,0.9
		l18.6,1.3c1.3,0.2,2.1,0.7,2.7,1.5c2.7,1.2,5.3,1.2,7.8,0c0.5-0.9,1.4-1.5,2.7-1.6l18.5-1.3l11.9-0.9l11.9-0.8l14.1-1l0.6,0
		l0.3,4.4L166.4,122.6z M93.2,127.4l-36.5-2.6c-4.8-0.4-6.5,4.9-6.8,9c-0.6,8.6,9,16.2,21.4,17.1c12.5,0.9,23.1-5.3,23.7-13.9
		C95.3,132.9,96.7,130.4,93.2,127.4z M159.4,133.6c-0.3-4-2-9.4-6.7-8.9l-36.3,2.6c-3.5,3-2.2,5.5-1.9,9.6
		c0.6,8.5,11.2,14.7,23.6,13.8C150.5,149.8,160,142.2,159.4,133.6z"/>
	<path id="Shape_6_copy_3" class="st7" d="M43.3,123c0,0,2.2-33.4,22.9-48.3c0,0,30,20.3,77.1,0c0,0,20.8,9.4,24,48.3h1.1
		c0,0,6-44.5-9.5-62.1c0,0-3.8-13.5-24-23.3l-7.3,4.4c0,0-4.9-5.9-17.9-13.3c0,0-9.6,4.3-14.5,11.6l-7.8-5c0,0-10.9,5-17.3,13.9
		l-11.7,1.7L52.2,62c0,0-14.7,11.7-10.1,59.9L43.3,123z"/>
	<path id="Shape_6_copy" class="st3" d="M170.6,123l-5.3-0.3C162.2,83.9,143.3,77,143.3,77c-47.1,20.3-77.1-0.3-77.1-0.3
		c-18.1,15.4-20.9,46.6-20.9,46.6l-4.7-1.4c-4.6-48.2,10.1-60.7,10.1-60.7L57.2,49l12.3-1.7c6.4-8.9,18.2-14.4,18.2-14.4l7.3,4.7
		c4.9-7.4,15.1-11.1,15.1-11.1c13,7.4,17.9,13,17.9,13l7.5-4.2c20.2,9.8,25.7,25.2,25.7,25.2C176.6,78.3,170.6,123,170.6,123z
		 M157.5,61.7c0,0-2.4-12.1-22.6-21.9l-7.5,4.4c0,0-4.9-5.9-17.9-13.3c0,0-8.8,4.5-13.7,11.9l-8.4-5.3c0,0-10.1,4.7-16.5,13.6
		l-11.2,1.7l-5.9,10.5c0,0-12.2,9.2-10.9,46.6l0.3-0.3c0,0,3.9-23.2,22.8-37.4c0,0,30.8,20.8,77.9,0.6c0,0,17.4,8.1,23.4,37.2
		C167.5,110,171.1,80.1,157.5,61.7z"/>
	<path id="new_x5F_vector_x5F_shape_x5F_done_copy" class="st8" d="M106.3,41.2c0.4,0.3,0.2,0.6,0.1,1c-0.1,0.6-0.3,1.1-0.4,1.7
		c-0.1,0.9-0.3,1.7-0.3,2.6c0,0.7,0,1.4,0,2.1c0,0.4,0.1,0.8,0.1,1.2c0,0.2,0,0.3,0.1,0.5c0,0,0,0.1,0,0.1c0,0.2,0.1,0.4,0.1,0.6
		c0,0.2,0.1,0.4,0.1,0.6c0.1,0.3,0.1,0.6,0.2,0.9c0,0.1,0,0.1,0,0.2c0.1,0.2,0.1,0.5,0.2,0.7c0,0,0,0.1,0,0.1c0.1,0.3,0.2,0.7,0.3,1
		c0.2,0.5,0.3,1.1,0.5,1.6c0.1,0.4,0.2,0.7,0.4,1.1c0.2,0.6,0.5,1.3,0.7,1.9c0.2,0.4,0.4,0.7,0.5,1.1c0.5,1.1,1,2.1,1.6,3.2
		c0.2,0.3,0.4,0.7,0.6,1c0.1,0.2,0.3,0.5,0.4,0.7c0.1,0.1,0.1,0.2,0.2,0.3c0.2,0.3,0.3,0.5,0.5,0.8c0.1,0.2,0.3,0.4,0.5,0.7
		c0.2,0.3,0.3,0.5,0.5,0.8c0.3,0.4,0.6,0.9,0.9,1.3c0.3,0.4,0.6,0.8,1,1.3c0.6,0.9,1.3,1.7,2,2.5c0.2,0.3,0.4,0.5,0.6,0.7
		c0.1,0.1,0.3,0.2,0.3,0.4c0,0.1,0,0.1,0.1,0.2c0,0.1,0,0.2,0,0.3c0,0.2,0,0.3,0,0.5c0,0.2-0.1,0.4-0.2,0.5
		c-0.1,0.1-0.2,0.3-0.3,0.3c-0.1,0.1-0.1,0.1-0.2,0.2c-0.2,0.1-0.4,0.3-0.6,0.3c-0.2,0.1-0.5-0.1-0.7-0.3c-0.3-0.3-0.7-0.7-0.9-1
		c-0.1-0.1-0.1-0.1-0.2-0.2c-0.3-0.4-0.7-0.8-1-1.2c-0.1-0.1-0.2-0.1-0.2-0.2c-0.2-0.3-0.5-0.6-0.8-0.9c-0.6-0.8-1.3-1.6-1.9-2.4
		c-0.1-0.2-0.3-0.3-0.4-0.5c-0.9-1.4-1.9-2.7-2.6-4.1c-0.2-0.4-0.4-0.7-0.6-1.1c-0.5-1.1-1-2.1-1.4-3.2c-0.1-0.1-0.1-0.3-0.2-0.4
		c-0.2-0.6-0.5-1.3-0.7-1.9c-0.2-0.6-0.3-1.3-0.6-2c0-0.1-0.1-0.3-0.1-0.4c0-0.1,0-0.1,0-0.2c0-0.2-0.1-0.3-0.1-0.5
		c-0.1-0.4-0.1-0.7-0.2-1.1c-0.1-0.3-0.1-0.7-0.1-1c0-0.1,0-0.1,0-0.2c0-0.2-0.1-0.5-0.1-0.7c0-0.4-0.1-0.8-0.1-1.2c0-0.5,0-1,0-1.5
		c0-0.5,0-1,0.1-1.5c0.1-1.3,0.3-2.7,0.6-4.1c0.1-0.5,0.3-1,0.5-1.5c0.1-0.3,0.3-0.7,0.4-1c0-0.1,0.1-0.1,0.1-0.2
		c0.1-0.2,0.2-0.4,0.3-0.6c0.1-0.1,0.3-0.1,0.4-0.1C106.2,41.2,106.3,41.2,106.3,41.2z M93.2,50.8c0.3,0.2,0.3,0.5,0.3,0.8
		c0,0.3,0.1,0.5,0.1,0.8c0,0.2,0.1,0.4,0.1,0.6c0,0.2,0,0.3,0.1,0.5c0,0.2,0,0.3,0.1,0.5c0,0.2,0.1,0.3,0.1,0.5
		c0,0.2,0.1,0.3,0.1,0.5c0.1,0.5,0.2,0.9,0.3,1.4c0.2,0.5,0.3,1,0.4,1.5c0.2,0.6,0.4,1.3,0.7,1.9c0.1,0.3,0.3,0.6,0.4,0.9
		c0.1,0.2,0.2,0.5,0.3,0.7c0.5,1,1,2,1.5,3c0.4,0.8,0.9,1.5,1.4,2.3c0.1,0.2,0.3,0.4,0.5,0.7c0.4,0.5,0.7,1.1,1.1,1.6
		c0.3,0.5,0.7,1,1.1,1.5c0.1,0.1,0.1,0.1,0.2,0.2c0.2,0.3,0.4,0.5,0.6,0.8c0.1,0.1,0.2,0.2,0.3,0.4c0.2,0.3,0.3,0.8,0.2,1.2
		c-0.2,0.6-0.7,1-1.2,1.1c-0.1,0-0.3,0.1-0.5,0.1c-0.2-0.1-0.4-0.3-0.5-0.4c-0.2-0.2-0.4-0.4-0.5-0.6c-0.3-0.4-0.7-0.7-1-1.1
		c-0.6-0.8-1.3-1.6-1.9-2.5c-1.3-2-2.4-3.9-3.2-6c-0.4-0.8-0.6-1.7-0.9-2.6c-0.1-0.3-0.2-0.6-0.3-0.9c-0.1-0.4-0.2-0.8-0.3-1.3
		c0-0.1,0-0.1,0-0.2c0-0.1-0.1-0.2-0.1-0.3c0-0.1,0-0.2,0-0.2c0-0.2-0.1-0.3-0.1-0.5c0-0.2-0.1-0.3-0.1-0.5c0-0.1,0-0.2-0.1-0.3
		c0-0.4-0.1-0.8-0.1-1.2c0-0.1,0-0.2,0-0.3c0-0.4,0-0.8,0-1.2c0-0.5,0-0.9,0-1.4c0-0.2,0-0.3,0.1-0.5c0-0.2,0-0.4,0.1-0.6
		c0-0.1,0-0.3,0.1-0.4c0-0.1,0.2-0.3,0.3-0.4c0.1,0,0.2-0.1,0.3,0C93.1,50.7,93.2,50.8,93.2,50.8z M83.2,52.9
		c0.3,0.2,0.2,0.6,0.2,0.8c0,0.5,0,1,0.1,1.4c0,0.4,0.1,0.8,0.1,1.1c0,0.1,0,0.2,0.1,0.4c0,0.2,0.1,0.5,0.1,0.7c0,0.1,0,0.1,0,0.2
		c0,0.1,0,0.2,0.1,0.3c0,0.1,0,0.1,0,0.2c0.1,0.3,0.1,0.6,0.2,0.8c0.2,0.6,0.4,1.3,0.6,1.9c0.5,1.4,1.2,2.7,1.9,4.1
		c0.2,0.4,0.5,0.9,0.8,1.3c0.1,0.2,0.2,0.3,0.3,0.5c0.3,0.5,0.7,1,1,1.5c0.5,0.7,1,1.3,1.5,2c0.2,0.2,0.4,0.4,0.6,0.7
		c0.1,0.2,0.3,0.4,0.5,0.6c0.3,0.4,0.7,0.8,1,1.2c0.2,0.2,0.4,0.4,0.6,0.6c0.2,0.2,0.5,0.4,0.7,0.7c0.1,0,0.1,0.1,0.2,0.1
		c0.2,0.2,0.5,0.5,0.7,0.7c0.1,0.1,0.2,0.2,0.3,0.3c0.3,0.3,0.7,0.6,1,1c0.1,0.1,0.2,0.2,0.3,0.3c0,0,0.1,0,0.1,0.1
		c0.1,0.1,0.3,0.2,0.4,0.3c0,0,0.1,0.1,0.1,0.1c0.2,0.2,0.5,0.4,0.6,0.5c0,0,0.1,0.1,0.1,0.1c0.2,0.3,0.6,0.4,0.8,0.7
		c0.1,0.1,0.2,0.2,0.3,0.2c0.1,0.1,0.2,0.1,0.2,0.2c0.2,0.2,0.4,0.3,0.6,0.5c0.1,0.1,0.3,0.2,0.3,0.3c0.1,0.1,0.2,0.1,0.3,0.2
		c0.2,0.2,0.4,0.3,0.7,0.5c0.5,0.4,1,0.7,1.5,1.1c0.2,0.2,0.5,0.3,0.7,0.5c0.1,0.1,0.1,0.3,0.2,0.4c0.1,0.3,0.1,0.6,0.1,0.9
		c0,0.1-0.1,0.2-0.1,0.3c-0.1,0.2-0.2,0.4-0.3,0.6c-0.1,0.1-0.2,0.2-0.4,0.3c-0.2,0.1-0.4,0.1-0.6,0c-0.1,0-0.1-0.1-0.2-0.1
		c-0.4-0.2-0.7-0.5-1.1-0.6c-0.1,0-0.1-0.1-0.2-0.1c-0.1-0.1-0.2-0.2-0.4-0.2c-0.1-0.1-0.2-0.2-0.4-0.3c-0.1-0.1-0.3-0.2-0.4-0.2
		c0,0-0.1-0.1-0.1-0.1c-0.1-0.1-0.3-0.2-0.4-0.2c-0.2-0.1-0.3-0.2-0.5-0.3c-0.2-0.1-0.4-0.2-0.5-0.4c-0.1-0.1-0.3-0.2-0.4-0.3
		c-0.1-0.1-0.2-0.1-0.3-0.2c-0.2-0.1-0.4-0.3-0.6-0.4c-0.1-0.1-0.2-0.1-0.3-0.2c-0.1-0.2-0.4-0.3-0.5-0.4c-0.1,0-0.1-0.1-0.2-0.1
		c-0.1-0.1-0.3-0.2-0.4-0.3c-0.1,0-0.1-0.1-0.2-0.1c-0.1-0.1-0.2-0.2-0.3-0.3c0,0-0.1-0.1-0.1-0.1c-0.3-0.3-0.6-0.5-0.9-0.8
		c-0.1-0.1-0.2-0.1-0.2-0.2c-0.3-0.4-0.8-0.7-1.1-1c-0.1-0.1-0.2-0.1-0.3-0.2c-0.3-0.3-0.7-0.6-1-1c0-0.1-0.1-0.1-0.1-0.1
		c-0.1-0.2-0.3-0.3-0.4-0.5c-0.1-0.1-0.1-0.1-0.2-0.2c-0.4-0.6-1-1.1-1.4-1.6c-0.8-1-1.6-2-2.2-3c-0.1-0.2-0.3-0.4-0.4-0.7
		c-0.2-0.4-0.5-0.8-0.7-1.2c-0.3-0.7-0.7-1.3-1-2c-0.2-0.5-0.4-1-0.6-1.4c-0.2-0.4-0.3-0.8-0.4-1.2c-0.1-0.4-0.2-0.8-0.4-1.2
		c-0.1-0.4-0.2-0.8-0.3-1.2c0-0.2,0-0.3-0.1-0.5c-0.1-0.4-0.1-0.8-0.2-1.2c-0.3-1.6-0.3-3.3-0.2-5c0-0.4,0.1-0.8,0.2-1.2
		c0-0.2,0.1-0.4,0.3-0.5c0.1,0,0.3-0.1,0.3-0.1C83.1,52.8,83.2,52.9,83.2,52.9z"/>
</g>
<g id="Layer_2">
	<path id="body-bg" class="st0" d="M316.6,297.9c0,0-7.9-59.5,52.9-64.9h14.6c0,0,4.8-3,8.1-3v-8.5c0,0,18.2,8.9,37.1,0.3v7.7
		c0,0,0.8-1.5,9,3.8h21.9c0,0,46.6,5.6,46.6,64.6H316.6z"/>
	<path id="Rounded_Rectangle_13_copy_4_1_" class="st3" d="M505,298.9H317.7h-3.6l0.9-15.2c1.8-29.6,25.6-52.2,52.9-52.2h18.8
		c-1.2,1-2.1,2-2.7,3h-14.3c-26.3,0-49.2,21.7-51,50.2l-0.6,10.5h186.6l-0.3-10.5c-1.7-28.5-24.7-50.2-51-50.2h-14.4
		c-0.5-1-1.3-2-2.4-3h18.3c27.3,0,51.1,22.6,52.9,52.2l0.9,15.2H505z M430.9,234.6h-1v-3h1.1C430.9,232.4,430.9,233.4,430.9,234.6z
		 M391.4,231.6h1.2v3h-1C391.5,233.4,391.5,232.4,391.4,231.6z"/>
	<path id="Ellipse_5_1_" class="st1" d="M420.1,273.7c1.1,0,2,0.9,2,1.9c0,1.1-0.9,1.9-2,1.9c-1.1,0-2-0.9-2-1.9
		C418.1,274.5,419,273.7,420.1,273.7z"/>
	<path id="Ellipse_5_copy_1_" class="st1" d="M420.1,286.3c1.1,0,2,0.9,2,1.9c0,1.1-0.9,1.9-2,1.9c-1.1,0-2-0.9-2-1.9
		C418.1,287.2,419,286.3,420.1,286.3z"/>
	<path id="Shape_2_copy_9_1_" class="st3" d="M442.8,247.8l-14.3,20.9c-3.9-11.8-15.2-7.4-15.2-7.4v34.9c0,0.9-0.9,1.6-2,1.6
		s-2-0.7-2-1.6v-34.9c-0.1,0-11.3-4.3-15.1,7.4l-14.3-20.9c0,0-5.5-13.8,11.2-19.8c0-6,0-6.3,0-6.3h3.2c0,0,0,11.5,0,19.9
		c0.4,3.4,2.8,13.2,17,16.4c14.2-3.2,16.6-13,17.1-16.4c0-8.4,0-19.9,0-19.9h3.2c0,0,0,0.3,0,6.3
		C448.4,234.1,442.8,247.8,442.8,247.8z M394.1,249.7c-0.8-0.8-1.9-2.9-1.9-2.9s-1.1-3.4-1.1-4.9c0-1.9,0-4.3,0-7
		c-0.2-3.1-0.8-3.2-0.8-3.2c-12.5,6-7,15.4-7,15.4l10.4,15.9c4.1-6.7,8.4-5.5,8.4-5.5C398.3,255.5,395.7,252.5,394.1,249.7z
		 M432.4,231.6c0,0-0.6,0.1-0.8,3.2c0,2.6,0,5.1,0,7c0,1.5-1.1,4.9-1.1,4.9s-1.1,2.1-1.9,2.9c-1.6,2.9-4.2,5.8-8,7.8
		c0,0,4.4-1.2,8.4,5.5l10.4-15.9C439.5,247,445,237.6,432.4,231.6z"/>
	<path id="_x33__copy_5" class="st0" d="M411.4,54.5c35.1,0,61.9,19.3,61.9,65.5l-1.5,39.9c-9.3,51.2-32.8,63.3-60.3,63.3
		c-27.5,0-52.1-12.6-60.3-63.3l-1.5-39.9C349.5,74,376.3,54.5,411.4,54.5z"/>
	<path id="_x33__copy_6" class="st3" d="M474.6,159.7c-9.8,53.4-34.4,66-63.3,66c-28.8,0-54.6-13.1-63.3-66l-1.6-41.6
		c0-47.9,28.1-68.3,64.9-68.3s64.9,20.1,64.9,68.3L474.6,159.7z M411.4,53.4c-34.4,0-60.7,19.5-60.7,65.5l1.5,39.9
		c8.1,50.7,32.2,63.3,59.2,63.3c27,0,50-12.1,59.2-63.3l1.5-39.9C472,72.7,445.8,53.4,411.4,53.4z"/>
	<path id="usta_1_" class="st1" d="M441.7,184.1c-5.1,4.3-16.6,8.5-30.1,8.5s-24.9-4.1-30.1-8.5c0,0-0.5-1.4,0.2-2.2
		c0.8-0.8,2-0.6,2-0.6c5.1,4.3,14.4,7.9,27.8,7.9s22.7-3.6,27.8-7.9c0,0,1.2-0.5,1.9,0.1C442.5,182.7,441.7,184.1,441.7,184.1z"/>
	<path id="_x2D__1_" class="st1" d="M402.4,199.2h18v2.7h-18V199.2z"/>
	<path id="Shape_11_copy_1_" class="st0" d="M346.7,123.6c0,0-0.7-0.5-2-0.9c-0.6-0.2-1.4-0.4-2.4-0.4c-0.2,0-0.5,0-0.7,0
		s-0.5,0-0.7,0c-0.5,0.1-1,0.1-1.5,0.3c-2.1,0.6-4.2,2-5.4,4.9c-0.6,1.5-1,3.3-1.1,5.6c0,0.6,0,1.2,0,1.8c0,0.6,0,1.3,0.1,2
		c0.1,1.4,0.3,2.9,0.6,4.6c0,0-0.3,5,1.6,10.8c1.7,5.6,5.8,12.5,13.5,14.5C347.7,152.5,347.6,138,346.7,123.6L346.7,123.6z"/>
	<path id="Shape_3_1_" class="st1" d="M347.6,124.2c0,0-13.3-4-12.8,9.3c0,0,2,19.4,2.8,21.2c0,0,5.2,11.3,13.8,11.8
		c8.4,0.5,0,0,0,0l0.1,3.6c0,0-15.1-1.9-18.1-19l-2.3-15.5c0,0-1.8-20.5,15.6-15.3c16.9,5.1,0,0,0,0L347.6,124.2"/>
	<path id="Shape_4_1_" class="st1" d="M343.2,151.1c0,0-0.7,0.5-1.4,0.5c-0.6,0-1.4-0.5-1.4-0.5l-1.4-13.5c0,0,1.9-6.7,9.9-3.1
		l0.2,3.9c0,0-7-2.4-6.9,0.6C342.4,141.8,343.2,151.1,343.2,151.1z"/>
	<path id="Shape_3_x5F_1_1_" class="st1" d="M474.9,124.2c0,0,13.3-4,12.9,9.3c0,0-2,19.4-2.8,21.1c0,0-5.2,11.3-13.9,11.8
		c-8.5,0.5,0,0,0,0l-0.1,3.6c0,0,15.2-1.9,18.1-18.9l2.3-15.5c0,0,1.8-20.5-15.7-15.3c-17,5.1,0,0,0,0L474.9,124.2"/>
	<path id="Shape_4_x5F_1_1_" class="st1" d="M479.3,151.1c0,0,0.7,0.5,1.4,0.5c0.6,0,1.4-0.5,1.4-0.5l1.4-13.5c0,0-1.9-6.6-10-3.1
		l-0.2,3.9c0,0,7.1-2.4,6.9,0.6C480.1,141.8,479.3,151.1,479.3,151.1z"/>
	<path id="Shape_11" class="st0" d="M474.8,123.6c0,0,0.7-0.5,2-0.9c0.6-0.2,1.4-0.4,2.4-0.4c0.2,0,0.5,0,0.7,0c0.2,0,0.5,0,0.7,0
		c0.5,0.1,1,0.1,1.5,0.3c2.1,0.6,4.2,2,5.4,5c0.6,1.5,1,3.3,1.1,5.6c0,0.6,0,1.2,0,1.8s0,1.3-0.1,2c-0.1,1.4-0.3,2.9-0.6,4.6
		c0,0,0.3,5-1.6,10.8c-1.7,5.6-5.9,12.6-13.5,14.6C473.9,152.7,473.9,138,474.8,123.6L474.8,123.6z"/>
	<path id="Shape_3_x5F_2" class="st1" d="M475.2,124.2c0,0,13.3-4,12.9,9.3c0,0-2,19.4-2.8,21.1c0,0-5.2,11.3-13.9,11.8
		c-8.5,0.5,0,0,0,0l-0.1,3.6c0,0,15.2-1.9,18.1-18.9l2.3-15.5c0,0,1.8-20.5-15.7-15.3c-17,5.1,0,0,0,0L475.2,124.2"/>
	<path id="Shape_4_x5F_2" class="st1" d="M479.6,151.1h2.8l1.4-13.5c0,0-1.9-6.6-10-3.1l-0.2,3.9c0,0,7.1-2.4,6.9,0.6
		C480.4,141.8,479.6,151.1,479.6,151.1z"/>
	<path id="new_vector_shape_done_1_" class="st3" d="M416.6,150c0.3,0,0.7,0,1,0c2,2.7,2.9,6.8,3.9,10.4c0.3,1.1,0,3.1-0.3,3.8
		c-1.1,2.9-4.4,2.8-7.2,4.1c-0.7,0.3-1.3,0.9-2.2,1.1c-0.6-0.5-1.4-0.6-1.7-1.5c-0.8-1,0.2-1.7,1-2.1c1.4-0.7,5.7-1.4,6.2-2.7
		c0.6-0.7,0.2-2.8,0-3.6c-0.5-1.9-0.8-3.5-1.5-5.2c-0.5-1.1-1.4-2.3-0.8-3.7C415.3,150.5,416.2,150.3,416.6,150z"/>
	<path id="oko_1_" class="st1" d="M380.5,126.7c3.1,0,5.6,2.5,5.6,5.5s-2.5,5.5-5.6,5.5s-5.6-2.5-5.6-5.5S377.4,126.7,380.5,126.7z"
		/>
	<path id="oko_1_1_" class="st1" d="M442.8,126.7c3.1,0,5.6,2.5,5.6,5.5s-2.5,5.5-5.6,5.5c-3.1,0-5.6-2.5-5.6-5.5
		S439.7,126.7,442.8,126.7z"/>
	<path id="Ellipse_3_copy_3" class="st9" d="M445.4,147c3.9,0,7,3.1,7,6.9c0,3.8-3.1,6.9-7,6.9c-3.9,0-7-3.1-7-6.9
		C438.3,150.1,441.5,147,445.4,147z"/>
	<path id="Ellipse_3_copy_4" class="st9" d="M377.4,147c3.9,0,7,3.1,7,6.9c0,3.8-3.1,6.9-7,6.9c-3.9,0-7-3.1-7-6.9
		C370.4,150.1,373.5,147,377.4,147z"/>
	<path id="fill" class="st10" d="M353.6,114c0,0,18-9.2,16-40.7c0,0,28.7,31.7,98,22.1l3.3,29.7c0,0,40.7-76-32.2-93.5
		c-71.4-17.1-72.2,28-72.2,28s-21.9-3.3-23.7,18.2c-1.8,21.5,4.8,44,4.8,44l5.5,4.4L353.6,114z"/>
	<path id="line" class="st3" d="M472,128.3l-4.2-31c-71.3,8.5-97.5-19.8-97.5-19.8c-1.1,31.5-16.7,37.4-16.7,37.4l-1.2,12.7
		l-7.9-4.4c0,0-7.5-23.9-5.7-45.4c1.9-23.1,24.7-19.8,24.7-19.8s2.7-46.3,76-28.5C519.4,48.8,472,128.3,472,128.3z M438.9,33.2
		c-73.7-16.2-72.2,28.8-72.2,28.8s-22.1-5.8-24,15.6s4.3,42.6,4.3,42.6l2.5,1.9l0.3-9.4c0,0,18.5-6.2,16.5-43.7
		c0,0,26.4,33.9,104.6,24.2l2.8,24.7C473.7,118.1,507.9,48.4,438.9,33.2z"/>
	<path id="R_copy_1_" class="st1" d="M429.4,119.2c0,0,16.8-9.4,28.8,1l3.2,0.5c0,0-4.1-14.5-33.7-5.1l0.8,2.7 M429.1,118.3
		c0,0,17.1-9.6,28.4,2.5l5.8-0.2c0,0-7.2-15.5-37-5.7l2.8,4"/>
	<path id="R_copy_3" class="st1" d="M393.2,119.2c0,0-16.8-9.3-28.7,0.9l-3.2,0.5c0,0,4.1-14.4,33.6-5l-0.8,2.7 M393.4,118.3
		c0,0-17.1-9.5-28.3,2.5l-5.8-0.2c0,0,7.2-15.3,36.9-5.7l-2.8,4"/>
</g>
<g id="svg4226" xmlns:cc="http://creativecommons.org/ns#" xmlns:dc="http://purl.org/dc/elements/1.1/" xmlns:rdf="http://www.w3.org/1999/02/22-rdf-syntax-ns#" xmlns:svg="http://www.w3.org/2000/svg">
	<path id="Shape_12" class="st1" d="M372,362.2c-14.4,62.9-87.9,38.2-113,27.8V390c-25.1,10.5-98.7,35.1-113-27.8
		c0,0,25.8,0.3,18-80.6c0,0-27.9-160.2,95-146.8v0.3c122.9-13.4,95,146.7,95,146.7C346.3,362.5,372,362.2,372,362.2z"/>
	<path id="body-bg-flat_copy" class="st0" d="M157.1,438.7c0,0-4.7-63.4,55-69.3h26.8V357c0,0,18.8,8.1,37.9,0.9l0.6,11.4h31.3
		c0,0,53.5,2.1,51.1,69.9L157.1,438.7z"/>
	<path id="Rounded_Rectangle_13_copy_4" class="st3" d="M359.2,441.2H158.8h-3.9l1-16.6c1.9-32.4,27.4-57.1,56.6-57.1h20.1
		c-1.3,1.1-2.3,2.2-2.9,3.3h-15.4c-28.1,0-52.7,23.8-54.5,54.9l-0.7,11.5h199.7l-0.4-11.5c-1.8-31.2-26.4-54.9-54.5-54.9h-15.4
		c-0.6-1.1-1.4-2.2-2.6-3.3h19.6c29.2,0,54.7,24.7,56.6,57.1l1,16.6H359.2z M279.9,370.9h-1.1v-3.3h1.2
		C279.9,368.4,279.9,369.5,279.9,370.9z M237.6,367.5h1.3v3.3h-1.1C237.8,369.4,237.7,368.4,237.6,367.5z"/>
	<path id="Ellipse_5" class="st1" d="M268.3,413.5c1.2,0,2.1,0.9,2.1,2.1s-0.9,2.1-2.1,2.1c-1.2,0-2.1-0.9-2.1-2.1
		S267.2,413.5,268.3,413.5z"/>
	<path id="Ellipse_5_copy" class="st1" d="M268.3,427.4c1.2,0,2.1,0.9,2.1,2.1c0,1.2-0.9,2.1-2.1,2.1c-1.2,0-2.1-0.9-2.1-2.1
		C266.2,428.3,267.2,427.4,268.3,427.4z"/>
	<path id="Shape_2_copy_9" class="st3" d="M292.7,385.3l-15.3,22.9c-4.2-12.9-16.2-8.1-16.2-8.1v38.2c0,1-0.9,1.8-2.1,1.8
		s-2.1-0.8-2.1-1.8V400c-0.1,0-12.1-4.8-16.2,8.1l-15.3-22.9c0,0-5.9-15.1,12-21.6c0-6.6,0-6.9,0-6.9h3.4c0,0,0,12.6,0,21.8
		c0.4,3.7,3,14.4,18.2,17.9c15.2-3.5,17.8-14.2,18.3-17.9c0-9.2,0-21.8,0-21.8h3.4c0,0,0,0.3,0,6.9
		C298.6,370.2,292.7,385.3,292.7,385.3z M240.5,387.3c-0.8-0.9-2-3.2-2-3.2s-1.1-3.8-1.1-5.4c0-2,0-4.7,0-7.6
		c-0.3-3.4-0.9-3.5-0.9-3.5c-13.4,6.6-7.5,16.8-7.5,16.8l11.1,17.4c4.3-7.4,9-6,9-6C245,393.7,242.3,390.4,240.5,387.3z
		 M281.5,367.5c0,0-0.6,0.1-0.9,3.5c0,2.9,0,5.6,0,7.6c0,1.6-1.1,5.4-1.1,5.4s-1.2,2.3-2,3.2c-1.8,3.1-4.5,6.4-8.6,8.5
		c0,0,4.7-1.3,9,6l11.1-17.4C289.1,384.4,294.9,374.1,281.5,367.5z"/>
	<path id="_x32__copy_5" class="st0" d="M259.2,167c37.4,0,66.9,35,66,76.9l-1,44.6c-0.9,39.6-30,70.8-64.9,70.8s-64-31.3-64.9-70.8
		l-1-44.6C192.2,202,221.7,167,259.2,167z"/>
	<path id="_x32__line" class="st3" d="M328.1,242.6l-1.1,46.4c-0.9,41.2-31.4,73.7-68.1,73.7s-67.1-32.5-68.1-73.7l-1.1-46.4
		c-1-43.7,29.9-80.1,69.1-80.1S329.1,198.9,328.1,242.6z M258.9,167.3c-36.9,0-66,34.7-65.1,76.3l1,44.3
		c0.9,39.3,29.6,70.3,64.1,70.3s63.2-31,64.1-70.3l1-44.3C324.9,202,295.7,167.3,258.9,167.3z"/>
	<path id="usta" class="st1" d="M291.5,315.6c-5.5,4.7-17.8,9.3-32.2,9.3c-14.4,0-26.7-4.5-32.2-9.3c0,0-0.6-1.5,0.3-2.4
		c0.8-0.8,2.1-0.7,2.1-0.7c5.5,4.7,15.4,8.7,29.8,8.7c14.4,0,24.3-3.9,29.8-8.7c0,0,1.3-0.5,2,0.2
		C292.3,314,291.5,315.6,291.5,315.6z"/>
	<path id="_x2D_" class="st1" d="M249.4,332.1h19.2v3h-19.2V332.1z"/>
	<path id="oko" class="st1" d="M225.9,252.7c3.3,0,6,2.7,6,6c0,3.3-2.7,6-6,6c-3.3,0-6-2.7-6-6C219.9,255.4,222.6,252.7,225.9,252.7
		z"/>
	<path id="oko_1" class="st1" d="M292.7,252.7c3.3,0,6,2.7,6,6c0,3.3-2.7,6-6,6s-6-2.7-6-6C286.7,255.4,289.4,252.7,292.7,252.7z"/>
	<path id="Ellipse_3_copy" class="st2" d="M225.6,274.9c5.8,0,10.5,0.3,10.5,6.9c0,6.8-4.7,6.9-10.5,6.9c-5.8,0-10.5-1.2-10.5-6.9
		C215.1,275.2,219.8,274.9,225.6,274.9z"/>
	<path id="Ellipse_3_copy_2" class="st2" d="M295.4,274.9c5.8,0,10.5,0.3,10.5,6.9c0,6.8-4.7,6.9-10.5,6.9c-5.8,0-10.5-1.2-10.5-6.9
		C284.9,275.2,289.6,274.9,295.4,274.9z"/>
	<path id="R_copy" class="st1" d="M275.2,241.8l1.7,2.2l1.1,1.4c0,0,19.1-10.6,32.4,1.6l1.4,0.7c0,0-3.3-17.7-31.9-7.3
		C278.4,240.8,276.9,241.3,275.2,241.8z"/>
	<path id="L_copy" class="st1" d="M242.1,241.8l-1.7,2.2l-1.1,1.4c0,0-19.1-10.5-32.4,1.6l-1.4,0.7c0,0,3.3-17.6,31.9-7.3
		C238.9,240.8,240.4,241.3,242.1,241.8z"/>
	<path id="Rectangle_19" class="st1" d="M323.3,216H336v30.1h-12.6V216z"/>
	<path id="Shape_15" class="st11" d="M184.9,243.3c0,0,13.3-25.6,38.7-21.5c0,0,1,5.8,6.5,12.1c0,0,6-14.5,24.4-18.6
		c14.7-3.2,28.6-14.9,28.6-14.9s2.2,23.2,30.7,29.7c0,0,25,3.1,23.2-10.7s-15.7-74-82.2-64.9c-66.5,9.1-82.1,33.3-70.5,88.2"/>
	<path id="Shape_11_copy" class="st12" d="M189.1,249.3c0,0-0.7-0.6-2.1-1c-0.7-0.2-1.5-0.4-2.5-0.4c-0.2,0-0.5,0-0.8,0
		c-0.3,0-0.5,0-0.8,0.1c-0.5,0.1-1.1,0.2-1.6,0.3c-2.2,0.6-4.5,2.2-5.8,5.4c-0.7,1.6-1.1,3.6-1.2,6.1c0,0.6,0,1.3,0,2
		c0,0.7,0,1.4,0.1,2.2c0.1,1.5,0.3,3.2,0.6,5c0,0-0.3,5.5,1.7,11.8c1.8,6.2,6.3,13.7,14.4,15.9C190.1,281,190.1,265,189.1,249.3
		L189.1,249.3z"/>
	<path id="Shape_3" class="st1" d="M190.7,250c0,0-14.2-4.4-13.7,10.2c0,0,2.1,21.2,3,23.1c0,0,5.6,12.3,14.8,12.9c9,0.5,0,0,0,0
		l0.1,4c0,0-16.2-2.1-19.3-20.7l-2.5-17c0,0-1.9-22.4,16.7-16.7c18.1,5.6,0,0,0,0L190.7,250"/>
	<path id="Shape_4" class="st1" d="M186,279.4c0,0-0.8,0.6-1.5,0.6s-1.5-0.6-1.5-0.6l-1.5-14.8c0,0,2-7.3,10.6-3.4l0.2,4.2
		c0,0-7.5-2.7-7.4,0.7C185.2,269.3,186,279.4,186,279.4z"/>
	<path id="Shape_11_copy_x5F_1" class="st12" d="M328.6,249.4c0,0,0.7-0.6,2.1-1c0.7-0.2,1.6-0.4,2.5-0.4c0.2,0,0.5,0,0.8,0
		c0.3,0,0.5,0,0.8,0.1c0.5,0.1,1.1,0.2,1.6,0.3c2.2,0.6,4.5,2.2,5.8,5.4c0.7,1.6,1.1,3.6,1.2,6.1c0,0.6,0,1.3,0,2
		c0,0.7,0,1.4-0.1,2.2c-0.1,1.5-0.3,3.2-0.6,5c0,0,0.3,5.5-1.7,11.8c-1.8,6.1-6.3,13.7-14.5,15.9C327.6,281,327.6,265.1,328.6,249.4
		L328.6,249.4z"/>
	<path id="Shape_3_x5F_1" class="st1" d="M327,250c0,0,14.3-4.4,13.8,10.2c0,0-2.1,21.2-3,23.1c0,0-5.6,12.3-14.9,12.9
		c-9,0.5,0,0,0,0l-0.1,4c0,0,16.3-2.1,19.4-20.7l2.5-16.9c0,0,1.9-22.4-16.8-16.7c-18.2,5.6,0,0,0,0L327,250"/>
	<path id="Shape_4_x5F_1" class="st1" d="M331.7,279.4c0,0,0.8,0.6,1.5,0.6s1.5-0.6,1.5-0.6l1.5-14.8c0,0-2-7.3-10.7-3.4l-0.2,4.2
		c0,0,7.6-2.7,7.4,0.7C332.5,269.3,331.7,279.4,331.7,279.4z"/>
	<path id="new_vector_shape_done" class="st3" d="M264.6,278.2c0.4,0,0.7,0,1.1,0c2.2,3,3.1,7.5,4.2,11.4c0.4,1.2,0,3.3-0.3,4.2
		c-1.1,3.2-4.7,3.1-7.7,4.5c-0.8,0.4-1.4,1-2.4,1.2c-0.7-0.6-1.5-0.7-1.8-1.7c-0.8-1.1,0.2-1.8,1.1-2.3c1.5-0.8,6.1-1.6,6.6-3
		c0.7-0.8,0.2-3.1,0-3.9c-0.6-2.1-0.9-3.8-1.7-5.7c-0.5-1.3-1.4-2.6-0.9-4.1C263.2,278.8,264.2,278.6,264.6,278.2z"/>
</g>
</svg>
