<svg width="128" height="128" xmlns="http://www.w3.org/2000/svg">

 <title/>
 <g>
  <title>background</title>
  <rect fill="none" id="canvas_background" height="402" width="582" y="-1" x="-1"/>
 </g>
 <g>
  <title>Layer 1</title>
  <path fill="#666666" id="svg_1" d="m102.2,39.2a11.2,11.2 0 1 1 -11.2,-11.2a11.2,11.2 0 0 1 11.2,11.2zm6.8,32.4a18,18 0 0 0 -18,-18l0,0a18,18 0 0 0 -18,18l0,20.4l36,0l0,-20.4z" class="cls-1"/>
  <path fill="#666666" id="svg_2" d="m48.2,39.2a11.2,11.2 0 1 1 -11.2,-11.2a11.2,11.2 0 0 1 11.2,11.2zm6.8,32.4a18,18 0 0 0 -18,-18l0,0a18,18 0 0 0 -18,18l0,20.4l36,0l0,-20.4z" class="cls-2"/>
  <path fill="#4c4c4c" id="svg_3" d="m88.36,76.64a22.47,22.47 0 0 0 -9.47,-18.33a17.93,17.93 0 0 0 -5.89,13.29l0,20.4l15.36,0l0,-15.36z" class="cls-3"/>
  <path fill="#4c4c4c" id="svg_4" d="m39.64,76.64a22.47,22.47 0 0 1 9.47,-18.33a17.93,17.93 0 0 1 5.89,13.29l0,20.4l-15.36,0l0,-15.36z" class="cls-4"/>
  <path fill="#000000" id="svg_5" d="m78,38a14,14 0 1 1 -14,-14a14,14 0 0 1 14,14zm8.5,40.5a22.5,22.5 0 0 0 -22.5,-22.5l0,0a22.5,22.5 0 0 0 -22.5,22.5l0,25.5l45,0l0,-25.5z" class="cls-5"/>
 </g>
</svg>